<?xml version="1.0" encoding="iso-8859-1"?>
<!-- Generator: Adobe Illustrator 19.0.0, SVG Export Plug-In . SVG Version: 6.00 Build 0)  -->
<svg version="1.1" id="Capa_1" xmlns="http://www.w3.org/2000/svg" xmlns:xlink="http://www.w3.org/1999/xlink" x="0px" y="0px"
	 viewBox="0 0 512 512" style="enable-background:new 0 0 512 512;" xml:space="preserve">
<path style="fill:#5A5993;" d="M512,256c0,33.468-6.426,65.442-18.108,94.751C456.234,445.231,363.917,512,256,512
	c-2.738,0-5.454-0.042-8.171-0.136c-78.148-2.445-147.477-39.915-192.794-97.259C20.574,371.001,0,315.894,0,256
	c0-21.525,2.654-42.433,7.67-62.412C35.527,82.369,136.14,0,256,0C397.385,0,512,114.615,512,256z"/>
<path style="fill:#E89B1F;" d="M150.74,44.382c0,12.699,5.366,24.172,13.953,32.261c3.748,3.547,8.104,6.434,12.898,8.505v156.609
	c9.678,15.741,21.693,29.895,35.564,41.984h162.398c18.732,0,33.969-15.237,33.969-33.969V85.149
	c15.771-6.813,26.836-22.524,26.836-40.767c0-24.468-19.912-44.381-44.388-44.381H195.127
	C170.652,0.001,150.74,19.913,150.74,44.382z"/>
<path style="fill:#A55526;" d="M150.742,44.379c0,18.246,11.073,33.955,26.846,40.772H409.52
	c15.773-6.817,26.837-22.526,26.837-40.772c0-24.467-19.911-44.378-44.386-44.378H195.127
	C170.653,0.001,150.742,19.912,150.742,44.379z"/>
<path style="fill:#F7DB85;" d="M134.231,44.382c0,12.699,5.366,24.172,13.953,32.261c3.748,3.547,8.104,6.434,12.898,8.505v156.609
	c9.678,15.741,21.693,29.895,35.564,41.984h162.398c18.732,0,33.969-15.237,33.969-33.969V85.149
	c15.771-6.813,26.836-22.524,26.836-40.767c0-24.468-19.912-44.381-44.388-44.381H178.618
	C154.142,0.001,134.231,19.913,134.231,44.382z"/>
<path style="fill:#BC7344;" d="M134.233,44.379c0,18.246,11.073,33.955,26.846,40.772H393.01
	c15.773-6.817,26.837-22.526,26.837-40.772c0-24.467-19.911-44.378-44.386-44.378H178.618
	C154.143,0.001,134.233,19.912,134.233,44.379z"/>
<path style="fill:#F9EC8B;" d="M178.62,18.227h196.846c14.445,0,26.155,11.71,26.155,26.155l0,0
	c0,14.445-11.71,26.155-26.155,26.155h-0.687v179.242c0,8.687-7.043,15.73-15.73,15.73H195.035c-8.687,0-15.73-7.043-15.73-15.73
	V70.537h-0.686c-14.445,0-26.155-11.71-26.155-26.155l0,0C152.465,29.937,164.175,18.227,178.62,18.227z"/>
<g>
	<path style="fill:#E89B1F;" d="M212.984,104.819h121.435c5.408,0,9.792-4.384,9.792-9.792l0,0c0-5.408-4.384-9.792-9.792-9.792
		H212.984c-5.408,0-9.792,4.384-9.792,9.792l0,0C203.192,100.435,207.575,104.819,212.984,104.819z"/>
	<path style="fill:#E89B1F;" d="M212.984,160.88h121.435c5.408,0,9.792-4.384,9.792-9.792l0,0c0-5.408-4.384-9.792-9.792-9.792
		H212.984c-5.408,0-9.792,4.384-9.792,9.792l0,0C203.192,156.495,207.575,160.88,212.984,160.88z"/>
	<path style="fill:#E89B1F;" d="M212.984,216.942h121.435c5.408,0,9.792-4.384,9.792-9.792l0,0c0-5.408-4.384-9.792-9.792-9.792
		H212.984c-5.408,0-9.792,4.384-9.792,9.792l0,0C203.192,212.557,207.575,216.942,212.984,216.942z"/>
	<path style="fill:#E89B1F;" d="M43.409,44.382c0,12.699,5.366,24.172,13.953,32.261c3.748,3.547,8.104,6.434,12.898,8.505v156.609
		c9.678,15.741,21.693,29.895,35.564,41.984h162.398c18.732,0,33.969-15.237,33.969-33.969V85.149
		c15.771-6.813,26.836-22.524,26.836-40.767c0-24.468-19.912-44.381-44.388-44.381H87.797C63.322,0.001,43.409,19.913,43.409,44.382
		z"/>
</g>
<path style="fill:#A55526;" d="M43.412,44.379c0,18.246,11.073,33.955,26.846,40.772H302.19
	c15.773-6.817,26.837-22.526,26.837-40.772c0-24.467-19.911-44.378-44.386-44.378H87.798C63.322,0.001,43.412,19.912,43.412,44.379z
	"/>
<path style="fill:#F7DB85;" d="M26.9,44.382c0,12.699,5.366,24.172,13.953,32.261c3.748,3.547,8.104,6.434,12.898,8.505v156.609
	c9.678,15.741,21.693,29.895,35.564,41.984h162.398c18.732,0,33.969-15.237,33.969-33.969V85.149
	c15.771-6.813,26.836-22.524,26.836-40.767c0-24.468-19.912-44.381-44.388-44.381H71.287C46.812,0.001,26.9,19.913,26.9,44.382z"/>
<path style="fill:#BC7344;" d="M26.902,44.379c0,18.246,11.073,33.955,26.846,40.772h231.932
	c15.773-6.817,26.837-22.526,26.837-40.772c0-24.467-19.911-44.378-44.386-44.378H71.287C46.812,0.001,26.902,19.912,26.902,44.379z
	"/>
<path style="fill:#F9EC8B;" d="M71.289,18.227h196.846c14.445,0,26.155,11.71,26.155,26.155l0,0
	c0,14.445-11.71,26.155-26.155,26.155h-0.686v179.242c0,8.687-7.043,15.73-15.73,15.73H87.706c-8.687,0-15.73-7.043-15.73-15.73
	V70.537h-0.687c-14.445,0-26.155-11.71-26.155-26.155l0,0C45.134,29.937,56.845,18.227,71.289,18.227z"/>
<g>
	<path style="fill:#E89B1F;" d="M105.654,104.819h121.434c5.408,0,9.792-4.384,9.792-9.792l0,0c0-5.408-4.384-9.792-9.792-9.792
		H105.654c-5.408,0-9.792,4.384-9.792,9.792l0,0C95.861,100.435,100.245,104.819,105.654,104.819z"/>
	<path style="fill:#E89B1F;" d="M105.654,160.88h121.434c5.408,0,9.792-4.384,9.792-9.792l0,0c0-5.408-4.384-9.792-9.792-9.792
		H105.654c-5.408,0-9.792,4.384-9.792,9.792l0,0C95.861,156.495,100.245,160.88,105.654,160.88z"/>
	<path style="fill:#E89B1F;" d="M105.654,216.942h121.434c5.408,0,9.792-4.384,9.792-9.792l0,0c0-5.408-4.384-9.792-9.792-9.792
		H105.654c-5.408,0-9.792,4.384-9.792,9.792l0,0C95.861,212.557,100.245,216.942,105.654,216.942z"/>
</g>
<path style="fill:#E8EBED;" d="M493.892,234.183v116.569c-17.721,44.46-47.543,82.777-85.4,110.895
	c-10.136,7.523-20.835,14.315-32.037,20.302C340.553,501.133,299.551,512,256,512c-2.738,0-5.454-0.042-8.171-0.136
	c-78.148-2.445-147.477-39.915-192.794-97.259V234.183c0-22.423,18.171-40.594,40.584-40.594h357.679
	C475.711,193.588,493.892,211.759,493.892,234.183z"/>
<g>
	<path style="fill:#D6D7D8;" d="M247.829,234.183v277.682c-78.148-2.445-147.477-39.915-192.794-97.259
		C20.574,371.001,0,315.894,0,256c0-21.525,2.654-42.433,7.67-62.412h199.565C229.658,193.588,247.829,211.759,247.829,234.183z"/>
	<path style="fill:#D6D7D8;" d="M408.492,249.313v212.334c-10.136,7.523-20.835,14.315-32.037,20.302V249.313
		c0-8.85,7.168-16.018,16.018-16.018c4.42,0,8.432,1.797,11.327,4.692C406.695,240.88,408.492,244.893,408.492,249.313z"/>
</g>
<path style="fill:#413F77;" d="M469.274,292.237c0,4.974-2.017,9.477-5.277,12.737c-3.271,3.26-7.774,5.277-12.748,5.277H333.699
	c-9.947,0-18.024-8.067-18.024-18.014c0-4.984,2.017-9.488,5.277-12.748c3.271-3.26,7.774-5.277,12.748-5.277H451.25
	C461.197,274.213,469.274,282.279,469.274,292.237z"/>
<path style="fill:#5A5993;" d="M469.274,292.237c0,4.974-2.017,9.477-5.277,12.737c-3.271,3.26-7.774,5.277-12.748,5.277h-78.482
	c-9.947,0-18.025-8.067-18.025-18.014c0-4.984,2.017-9.488,5.287-12.748c3.26-3.26,7.764-5.277,12.737-5.277h78.482
	C461.197,274.213,469.274,282.279,469.274,292.237z"/>
<circle style="fill:#F7DB85;" cx="286.992" cy="259.009" r="15.198"/>
<circle style="fill:#EA566D;" cx="286.992" cy="305.559" r="15.198"/>
<g>
</g>
<g>
</g>
<g>
</g>
<g>
</g>
<g>
</g>
<g>
</g>
<g>
</g>
<g>
</g>
<g>
</g>
<g>
</g>
<g>
</g>
<g>
</g>
<g>
</g>
<g>
</g>
<g>
</g>
</svg>
